<svg xmlns="http://www.w3.org/2000/svg" width="139" height="26" fill="none"><path fill="#161616" d="M19.3 12.133h.985c.399 0 .774.035 1.125.105.375.07.563.328.563.774.164.937-.387 1.394-1.653 1.37-.351-.023-.68-.046-.984-.07a3.495 3.495 0 0 0-.703 0c-.188 0-.27.06-.246.176.234.68.48 1.442.738 2.285.281.844.586 1.688.914 2.532.844 2.086 1.64 3.586 2.39 4.5a5.429 5.429 0 0 1-1.406 1.23c-.515.328-.796.492-.843.492-.024 0-.047-.011-.07-.035l-4.958-10.441-9.597 2.355-.352 1.477c-.68 2.695-1.441 4.57-2.285 5.625-.14.234-.434.258-.879.07-.75-.281-1.125-.515-1.125-.703 0-.047.246-.727.738-2.04.493-1.312.985-2.636 1.477-3.972A364.15 364.15 0 0 0 4.71 13.61c.562-1.476 1.09-2.882 1.582-4.218.492-1.336.937-2.532 1.336-3.586.398-1.078.68-1.852.844-2.32a7.08 7.08 0 0 0 .316-1.266c.07-.375.164-.692.281-.95.235-.539.82-.808 1.758-.808 1.008.562 1.781 1.3 2.32 2.215.563.89 1.032 1.851 1.407 2.883a123.37 123.37 0 0 1 1.16 3.128 11.257 11.257 0 0 0 1.512 2.883c.21.328.527.504.949.528.422.023.797.035 1.125.035Zm-8.788-7.594c-.188 1.43-.61 2.895-1.266 4.395a142.04 142.04 0 0 1-1.582 3.515c-.398.82-.738 1.582-1.02 2.285 1.594 0 3.551-.468 5.872-1.406a44.155 44.155 0 0 1 1.687-.703c-1.101-4.71-2.332-7.406-3.691-8.086ZM26.93 24.438c-.961.398-1.606.597-1.934.597-.305 0-.515-.035-.633-.105-.117-.07-.246-.235-.386-.492 0-.774.023-1.747.07-2.918.07-1.172.129-2.426.176-3.762.047-1.336.07-2.684.07-4.043 0-1.36-.07-2.602-.211-3.727 0-.75.504-1.125 1.512-1.125.234 0 .41.422.527 1.266.14.844.235 1.5.281 1.969.07.468.13.808.176 1.02.61-1.102 1.817-1.97 3.621-2.602.961-.305 1.863-.457 2.707-.457.844 0 1.582.105 2.215.316.656.188 1.207.55 1.652 1.09.47.515.704 1.207.704 2.074.609-1.148 1.98-2.18 4.113-3.094 1.945-.867 3.691-1.3 5.238-1.3 2.227 0 3.316.843 3.27 2.53l.738 13.079c0 .117-.34.2-1.02.246-1.312.094-1.968-.023-1.968-.352a28.079 28.079 0 0 1-.035-1.406l.175-5.66c0-2.648-.258-4.746-.773-6.293-1.547.117-2.742.375-3.586.774a8.2 8.2 0 0 0-2.18 1.44c-.633.563-1.195 1.325-1.687 2.286-1.102 2.156-1.653 5.016-1.653 8.578-.14.492-.597.738-1.37.738-.516 0-.938-.082-1.266-.246-.328-.187-.457-.351-.387-.492.445-2.484.668-4.418.668-5.8 0-1.102-.117-2.145-.352-3.13a83.4 83.4 0 0 0-.808-3.445c-3.375 0-5.649 1.348-6.82 4.043-.516 1.195-.81 2.32-.88 3.375a60.083 60.083 0 0 0-.07 2.672c0 .727.035 1.512.106 2.355Zm32.273-1.899c2.063 0 5.168-.937 9.316-2.812.258 0 .47.093.633.28a.814.814 0 0 1 .246.598c-.937 1.594-2.73 2.836-5.379 3.727-2.648.89-5.12 1.043-7.417.457-2.602-.68-4.184-2.145-4.746-4.395a17.97 17.97 0 0 1-.07-1.792c0-.75.187-1.735.562-2.954.398-1.242 1.066-2.414 2.004-3.515a10.428 10.428 0 0 1 3.304-2.602 8.92 8.92 0 0 1 4.043-.949c1.36 0 2.883.469 4.57 1.406.797.446 1.43.95 1.899 1.512.469.563.703 1.137.703 1.723 0 .164-.012.328-.035.492-.047 1.43-.738 2.332-2.074 2.707-.586.164-1.266.246-2.04.246l-5.062-.211c-1.687 0-2.976.363-3.867 1.09-.516.398-.879.996-1.09 1.793.586 2.133 2.086 3.2 4.5 3.2Zm6.258-10.863a5.234 5.234 0 0 0-1.617-.809c-.563-.164-1.032-.246-1.407-.246-.374 0-.984.129-1.828.387-.843.234-1.593.504-2.25.808-1.617.75-2.425 1.536-2.425 2.356 1.875.164 3.28.246 4.218.246 2.602 0 4.36-.223 5.274-.668.562-.234.843-.527.843-.879 0-.422-.269-.82-.808-1.195Zm6.68-.317c-.047-1.265-.094-2.39-.141-3.375a696.414 696.414 0 0 0-.106-2.214c0-.493-.187-1.676-.562-3.551.211-.281.41-.551.598-.809.21-.258.504-.387.879-.387.82 0 1.453 3.457 1.898 10.371.234 4.008.352 8.016.352 12.024 0 1.078-.75 1.617-2.25 1.617L72.527 25c0-1.219-.035-2.777-.105-4.676-.07-1.898-.129-3.55-.176-4.957a196.891 196.891 0 0 0-.105-4.008Zm8.191-2.882c.305 4.382.563 9.457.774 15.222-.141.727-.704 1.09-1.688 1.09-.258 0-.527-.047-.809-.14-.257-.118-.421-.27-.492-.458V8.477h2.215Zm-3.27-4.782c0-.82.481-1.23 1.442-1.23.633 0 1.148.14 1.547.422.07.258.105.515.105.773 0 .235-.094.469-.281.703-.188.235-.469.352-.844.352s-.75-.082-1.125-.246a1.937 1.937 0 0 1-.844-.774Zm19.372 15.47c-1.758 2.765-4.102 4.476-7.032 5.132-.68.14-1.3.21-1.863.21h-1.371a8.661 8.661 0 0 1-1.195-.175 4.298 4.298 0 0 1-1.23-.457c-.868-.492-1.302-1.184-1.302-2.074a6.498 6.498 0 0 1-.14-1.406c0-.54.117-1.243.351-2.11.235-.867.657-1.805 1.266-2.812a14.27 14.27 0 0 1 2.285-2.778c1.852-1.78 3.856-2.93 6.012-3.445a8.009 8.009 0 0 1 1.722-.21c.54 0 1.02.034 1.442.105 1.36 0 2.273.925 2.742 2.777.305 1.172.48 2.812.527 4.922.07 2.086.13 3.703.176 4.851.07 1.125.223 2.157.457 3.094h-2.074a33.123 33.123 0 0 1-.21-1.687c-.048-.493-.095-.95-.141-1.372a25.476 25.476 0 0 0-.422-2.566Zm-.141-5.45c0-1.36-.668-2.04-2.004-2.04a3.468 3.468 0 0 0-.492-.034c-1.711 0-3.516.82-5.414 2.46-.89.75-1.652 1.594-2.285 2.532-.938 1.336-1.407 2.531-1.407 3.586 0 1.383.797 2.203 2.391 2.46 2.11-.046 4.125-1.007 6.047-2.882.82-.82 1.5-1.711 2.039-2.672.75-1.29 1.125-2.426 1.125-3.41Zm21.41 5.45c-1.312-.188-1.969-.493-1.969-.915 0-.305.223-.656.668-1.055a61.22 61.22 0 0 0 1.336-1.23c0-1.406-.211-2.977-.633-4.711a107.26 107.26 0 0 1-.914-4.078c-.187-.961-.281-1.84-.281-2.637 0-.797.117-1.3.352-1.512.258-.21.621-.316 1.09-.316.468 0 .773.07.914.21.14.118.234.27.281.458.047.187.07.387.07.598.024.21.071.41.141.597.117.446.48.668 1.09.668a35.48 35.48 0 0 0 4.711-.387c1.57-.257 3.129-.515 4.675-.773 3.094-.516 5.262-.773 6.504-.773 1.266 0 2.262.035 2.989.105.023.445.07.832.14 1.16.071.328.106.598.106.809 0 .398-.387.539-1.161.422-12.257.445-18.386 1.36-18.386 2.742 0 1.523.105 2.836.316 3.937.211 1.079.363 1.758.457 2.04.117.28.246.421.387.421 1.336 0 2.684-.117 4.043-.351a213.43 213.43 0 0 0 4.113-.739c1.383-.28 2.766-.539 4.149-.773a24.375 24.375 0 0 1 4.078-.352c.023 0 .035.094.035.282 0 .164-.012.351-.035.562-.071.563-.071.844 0 .844-1.008.563-2.836 1.02-5.485 1.371-1.148.164-2.32.316-3.515.457-1.196.14-2.297.293-3.305.457-2.32.328-3.668.762-4.043 1.3l-.387 6.892c-.257.257-.55.386-.879.386l-1.3-.105h-.352v-6.012Z"/></svg>